<svg width="101" height="19" viewBox="0 0 101 19" fill="none" xmlns="http://www.w3.org/2000/svg">
<mask id="mask0_10_18" style="mask-type:luminance" maskUnits="userSpaceOnUse" x="6" y="0" width="86" height="19">
<path d="M91.34 0H6.48999V18.22H91.34V0Z" fill="white"/>
</mask>
<g mask="url(#mask0_10_18)">
<path d="M97.57 15.73C88.14 16.13 88 9.73 78.56 9.73C69.12 9.73 69.12 15.73 59.67 15.73C50.23 15.73 50.23 9.73 40.78 9.73C31.33 9.73 31.33 15.73 21.89 15.73C12.44 15.73 12.56 10.13 3.12 9.73C2.73 9.72 0 12.33 0 11.94C0 11.55 6 11.54 6 11.14C6 10.74 0 10.74 0 10.34C0 9.94 6 9.94 6 9.54C6 9.14 2.47 5.76 2.87 5.74C12.3 5.34 12.44 11.74 21.88 11.74C31.32 11.74 31.32 5.74 40.77 5.74C50.22 5.74 50.21 11.74 59.66 11.74C69.11 11.74 69.11 5.74 78.55 5.74C87.99 5.74 87.88 11.34 97.32 11.74C97.72 11.76 100.45 9.14 100.45 9.54C100.45 9.94 94.45 9.94 94.45 10.34C94.45 10.74 100.45 10.74 100.45 11.14C100.45 11.54 94.42 11.89 94.47 12.28C94.69 14.2 97.98 15.72 97.58 15.74L97.57 15.73Z" fill="#D86883"/>
</g>
</svg>
